# xmcd CD database file
#
# Track frame offsets:
#	150
#	13837
#	25672
#	38370
#	51885
#	71567
#	83382
#	98620
#	113175
#	127145
#	139365
#	151605
#
# Disc length: 2222 seconds
#
# Revision: 2
# Processed by: cddbd v1.5.2PL0 Copyright (c) Steve Scherf et al.
# Submitted via: CDex 1.51
#
DISCID=8d08ac0c
DTITLE=Various Artist - New Country Dance Hits
DYEAR=1900
DGENRE=Country
TTITLE0=Tracy Byrd - Watermelon Crawl
TTITLE1=Marty Stuart - Hillbilly Rock
TTITLE2=Shenandoah - If Bubba Can Dance (I Can Too)
TTITLE3=John Anderson - Money In The Bank
TTITLE4=Restless Heart - Fast Movin' Train
TTITLE5=Robert Ellis Oral - Boom, It Was Over
TTITLE6=Sammy Kershaw - Third Rate Romance
TTITLE7=Doug Supernaw - Honkytonk Fool
TTITLE8=Mark Chesnutt - Bubba Shot The Jukebox
TTITLE9=Diamond Rio - This Romeo Ain't Got Juliet Yet
TTITLE10=Danni Leigh - If The Jukebox Took Teardrops
TTITLE11=Rhet Akins - I Brake For Brunetts
EXTD=
EXTT0=
EXTT1=
EXTT2=
EXTT3=
EXTT4=
EXTT5=
EXTT6=
EXTT7=
EXTT8=
EXTT9=
EXTT10=
EXTT11=
PLAYORDER=
